# xmcd
#
# Track frame offsets: 
#        150
#        13944
#        27170
#        44765
#        59858
#        81851
#        98143
#        129354
#        147995
#        165949
#
# Disc length: 2599 seconds
#
# Revision: 0
# Processed by: cddbd v1.5.2PL0 Copyright (c) Steve Scherf et al.
# Submitted via: ExactAudioCopy v1.3
#
DISCID=870a250a
DTITLE=Juniper Inc. - Sound Of Love
DYEAR=2017
DGENRE=Blues Rock
TTITLE0=Apple Tree
TTITLE1=Sound Of Love
TTITLE2=Hawkhead
TTITLE3=Rock'n'Roll Radio
TTITLE4=I'm Bad, I'm Nationwide
TTITLE5=Ride The Sky
TTITLE6=Addicted To You
TTITLE7=Travelin' Bone
TTITLE8=Take It No More
TTITLE9=Heartbraker
EXTD=
EXTT0=
EXTT1=
EXTT2=
EXTT3=
EXTT4=
EXTT5=
EXTT6=
EXTT7=
EXTT8=
EXTT9=
PLAYORDER=
